{
    "asset" : {
        "generator" : "Khronos glTF Blender I/O v3.3.27",
        "version" : "2.0"
    },
    "scene" : 0,
    "scenes" : [
        {
            "name" : "Scene",
            "nodes" : [
                0
            ]
        }
    ],
    "nodes" : [
        {
            "mesh" : 0,
            "name" : "SM_Ship_Fighter_01",
            "rotation" : [
                0.7071068286895752,
                0,
                0,
                0.7071067094802856
            ],
            "scale" : [
                0.009999999776482582,
                0.009999999776482582,
                0.009999999776482582
            ]
        }
    ],
    "materials" : [
        {
            "doubleSided" : true,
            "name" : "SciFiSpace",
            "pbrMetallicRoughness" : {
                "metallicFactor" : 0,
                "roughnessFactor" : 0.5527864098548889
            }
        }
    ],
    "meshes" : [
        {
            "name" : "Mesh",
            "primitives" : [
                {
                    "attributes" : {
                        "POSITION" : 0,
                        "NORMAL" : 1,
                        "TEXCOORD_0" : 2,
                        "TEXCOORD_1" : 3,
                        "TEXCOORD_2" : 4
                    },
                    "indices" : 5,
                    "material" : 0
                }
            ]
        }
    ],
    "accessors" : [
        {
            "bufferView" : 0,
            "componentType" : 5126,
            "count" : 10746,
            "max" : [
                666.3944702148438,
                645.6077880859375,
                185.09527587890625
            ],
            "min" : [
                -666.3952026367188,
                -645.6080322265625,
                -185.09515380859375
            ],
            "type" : "VEC3"
        },
        {
            "bufferView" : 1,
            "componentType" : 5126,
            "count" : 10746,
            "type" : "VEC3"
        },
        {
            "bufferView" : 2,
            "componentType" : 5126,
            "count" : 10746,
            "type" : "VEC2"
        },
        {
            "bufferView" : 3,
            "componentType" : 5126,
            "count" : 10746,
            "type" : "VEC2"
        },
        {
            "bufferView" : 4,
            "componentType" : 5126,
            "count" : 10746,
            "type" : "VEC2"
        },
        {
            "bufferView" : 5,
            "componentType" : 5123,
            "count" : 17478,
            "type" : "SCALAR"
        }
    ],
    "bufferViews" : [
        {
            "buffer" : 0,
            "byteLength" : 128952,
            "byteOffset" : 0,
            "target" : 34962
        },
        {
            "buffer" : 0,
            "byteLength" : 128952,
            "byteOffset" : 128952,
            "target" : 34962
        },
        {
            "buffer" : 0,
            "byteLength" : 85968,
            "byteOffset" : 257904,
            "target" : 34962
        },
        {
            "buffer" : 0,
            "byteLength" : 85968,
            "byteOffset" : 343872,
            "target" : 34962
        },
        {
            "buffer" : 0,
            "byteLength" : 85968,
            "byteOffset" : 429840,
            "target" : 34962
        },
        {
            "buffer" : 0,
            "byteLength" : 34956,
            "byteOffset" : 515808,
            "target" : 34963
        }
    ],
    "buffers" : [
        {
            "byteLength" : 550764,
            "uri" : "data:application/octet-stream;base64,"
        }
    ]
}
